<svg width="133" height="20" viewBox="0 0 133 20" fill="none" xmlns="http://www.w3.org/2000/svg">
<path d="M3.048 17.368V2.632L1.104 2.368V0.808H4.56C4.992 0.808 5.504 0.783999 6.096 0.735999C7.152 0.671999 8.016 0.639999 8.688 0.639999C10.768 0.639999 12.36 1.048 13.464 1.864C14.584 2.68 15.144 4.064 15.144 6.016C15.144 7.232 14.84 8.296 14.232 9.208C13.624 10.104 12.808 10.792 11.784 11.272C10.76 11.752 9.64 11.992 8.424 11.992H7.224C6.632 11.992 6.224 12.008 6 12.04V17.368L9.024 17.752V19H0.888V17.752L3.048 17.368ZM6 10.384C6.512 10.464 7.272 10.504 8.28 10.504C9.464 10.504 10.408 10.152 11.112 9.448C11.816 8.744 12.168 7.592 12.168 5.992C12.168 4.712 11.792 3.744 11.04 3.088C10.304 2.432 9.264 2.12 7.92 2.152C7.008 2.216 6.368 2.288 6 2.368V10.384ZM18.5688 17.512V8.656L16.9128 7.672V6.664L20.4648 5.608L21.1368 5.824V7.816C21.3928 7.288 21.9128 6.792 22.6968 6.328C23.4968 5.848 24.2328 5.608 24.9048 5.608C25.5128 5.608 25.9048 5.64 26.0808 5.704V8.584C25.5048 8.296 24.8168 8.152 24.0168 8.152C23.0248 8.152 22.2008 8.368 21.5448 8.8V17.464L24.6408 17.776V19H16.8408V17.776L18.5688 17.512ZM34.3649 5.488C36.3489 5.488 37.8609 6.096 38.9009 7.312C39.9409 8.512 40.4609 10.12 40.4609 12.136C40.4609 13.544 40.1809 14.792 39.6209 15.88C39.0609 16.952 38.2929 17.792 37.3169 18.4C36.3409 18.992 35.2369 19.288 34.0049 19.288C31.9409 19.288 30.3809 18.656 29.3249 17.392C28.2689 16.112 27.7409 14.448 27.7409 12.4C27.7409 10.992 28.0369 9.768 28.6289 8.728C29.2209 7.688 30.0129 6.888 31.0049 6.328C32.0129 5.768 33.1329 5.488 34.3649 5.488ZM34.1249 6.928C31.9649 6.928 30.8849 8.64 30.8849 12.064C30.8849 13.632 31.1569 14.976 31.7009 16.096C32.2449 17.216 33.0529 17.784 34.1249 17.8C35.2929 17.816 36.1169 17.352 36.5969 16.408C37.0929 15.464 37.3409 14.112 37.3409 12.352C37.3409 10.736 37.0769 9.432 36.5489 8.44C36.0369 7.432 35.2289 6.928 34.1249 6.928ZM44.6443 15.424L45.2443 16.816C45.6763 17.2 46.0763 17.48 46.4443 17.656C46.8123 17.816 47.2683 17.896 47.8123 17.896C48.5963 17.896 49.2123 17.736 49.6603 17.416C50.1083 17.08 50.3323 16.592 50.3323 15.952C50.3163 15.472 50.0923 15.08 49.6603 14.776C49.2443 14.472 48.5883 14.12 47.6923 13.72L47.0923 13.456C45.8923 12.88 44.9563 12.264 44.2843 11.608C43.6123 10.952 43.2763 10.144 43.2763 9.184C43.2763 8.384 43.5323 7.704 44.0443 7.144C44.5563 6.584 45.2043 6.168 45.9883 5.896C46.7883 5.624 47.6043 5.488 48.4363 5.488C49.1403 5.488 49.8523 5.568 50.5723 5.728C51.2923 5.872 51.8683 6.048 52.3003 6.256V9.04H50.9323L50.3803 7.672C49.8203 7.08 49.1803 6.784 48.4603 6.784C47.7723 6.784 47.2123 6.928 46.7803 7.216C46.3643 7.488 46.1563 7.904 46.1563 8.464C46.1563 8.88 46.2923 9.248 46.5643 9.568C46.8523 9.872 47.1723 10.12 47.5243 10.312C47.8923 10.504 48.5243 10.816 49.4203 11.248C50.2523 11.632 50.9083 11.976 51.3883 12.28C51.8843 12.584 52.3003 12.976 52.6363 13.456C52.9723 13.92 53.1403 14.496 53.1403 15.184C53.1403 16.528 52.6203 17.552 51.5803 18.256C50.5403 18.944 49.2123 19.288 47.5963 19.288C46.8603 19.288 46.1003 19.192 45.3163 19C44.5483 18.824 43.8763 18.576 43.3003 18.256V15.424H44.6443ZM62.0131 5.488C63.5491 5.488 64.7411 5.944 65.5891 6.856C66.4531 7.768 66.8851 9.048 66.8851 10.696C66.8851 11.4 66.8291 12.064 66.7171 12.688H58.2451C58.2771 14.176 58.6531 15.336 59.3731 16.168C60.1091 17 61.1491 17.416 62.4931 17.416C63.0851 17.416 63.7171 17.352 64.3891 17.224C65.0611 17.08 65.6051 16.904 66.0211 16.696L66.5251 17.848C66.0131 18.296 65.2691 18.656 64.2931 18.928C63.3171 19.184 62.3491 19.312 61.3891 19.312C59.4371 19.296 57.9251 18.688 56.8531 17.488C55.7811 16.288 55.2451 14.656 55.2451 12.592C55.2451 11.232 55.5331 10.016 56.1091 8.944C56.6851 7.856 57.4851 7.008 58.5091 6.4C59.5331 5.792 60.7011 5.488 62.0131 5.488ZM61.4611 6.904C60.5811 6.904 59.8531 7.264 59.2771 7.984C58.7171 8.704 58.3811 9.744 58.2691 11.104H63.8851C63.9011 10.928 63.9091 10.664 63.9091 10.312C63.9091 9.128 63.6531 8.296 63.1411 7.816C62.8211 7.208 62.2611 6.904 61.4611 6.904ZM76.0378 5.536C76.6938 5.504 77.3658 5.544 78.0538 5.656C78.7578 5.768 79.2778 5.92 79.6138 6.112V9.28H78.1258L77.4058 7.528C77.0058 7.224 76.4138 7.072 75.6298 7.072C74.5898 7.072 73.7418 7.504 73.0858 8.368C72.4458 9.232 72.1258 10.4 72.1258 11.872C72.1258 13.056 72.3098 14.064 72.6778 14.896C73.0618 15.728 73.5658 16.352 74.1898 16.768C74.8138 17.184 75.4938 17.392 76.2298 17.392C76.8378 17.392 77.4618 17.328 78.1018 17.2C78.7418 17.056 79.2218 16.88 79.5418 16.672L80.0458 17.848C79.5338 18.296 78.8378 18.648 77.9578 18.904C77.0938 19.144 76.1578 19.264 75.1497 19.264C73.9178 19.264 72.8538 18.984 71.9578 18.424C71.0618 17.864 70.3738 17.088 69.8938 16.096C69.4298 15.088 69.1978 13.944 69.1978 12.664C69.1978 11.256 69.4938 10.024 70.0858 8.968C70.6778 7.896 71.4858 7.064 72.5098 6.472C73.5498 5.88 74.7258 5.568 76.0378 5.536ZM81.8591 7.504V6.4L85.4111 5.608L85.8911 5.824V13.912C85.8911 15.16 86.0431 16.056 86.3471 16.6C86.6671 17.128 87.2671 17.392 88.1471 17.392C88.6591 17.392 89.1871 17.28 89.7311 17.056C90.2911 16.832 90.6991 16.6 90.9551 16.36V8.152L89.4911 7.624V6.424L93.4031 5.608L93.8351 5.8V17.776H95.2271V18.832C94.9871 18.976 94.5951 19.104 94.0511 19.216C93.5071 19.328 93.0351 19.384 92.6351 19.384C92.2031 19.384 91.8591 19.288 91.6031 19.096C91.3631 18.92 91.2431 18.648 91.2431 18.28V17.488C90.6831 18.032 90.0271 18.464 89.2751 18.784C88.5231 19.104 87.8031 19.264 87.1151 19.264C85.9631 19.264 85.0911 19.056 84.4991 18.64C83.9231 18.208 83.5391 17.616 83.3471 16.864C83.1551 16.112 83.0511 15.12 83.0351 13.888V8.032L81.8591 7.504ZM99.1141 17.512V8.656L97.4581 7.672V6.664L101.01 5.608L101.682 5.824V7.816C101.938 7.288 102.458 6.792 103.242 6.328C104.042 5.848 104.778 5.608 105.45 5.608C106.058 5.608 106.45 5.64 106.626 5.704V8.584C106.05 8.296 105.362 8.152 104.562 8.152C103.57 8.152 102.746 8.368 102.09 8.8V17.464L105.186 17.776V19H97.3861V17.776L99.1141 17.512ZM110.23 15.424L110.83 16.816C111.262 17.2 111.662 17.48 112.03 17.656C112.398 17.816 112.854 17.896 113.398 17.896C114.182 17.896 114.798 17.736 115.246 17.416C115.694 17.08 115.918 16.592 115.918 15.952C115.902 15.472 115.678 15.08 115.246 14.776C114.83 14.472 114.174 14.12 113.278 13.72L112.678 13.456C111.478 12.88 110.542 12.264 109.87 11.608C109.198 10.952 108.862 10.144 108.862 9.184C108.862 8.384 109.118 7.704 109.63 7.144C110.142 6.584 110.79 6.168 111.574 5.896C112.374 5.624 113.19 5.488 114.022 5.488C114.726 5.488 115.438 5.568 116.158 5.728C116.878 5.872 117.454 6.048 117.886 6.256V9.04H116.518L115.966 7.672C115.406 7.08 114.766 6.784 114.046 6.784C113.358 6.784 112.798 6.928 112.366 7.216C111.95 7.488 111.742 7.904 111.742 8.464C111.742 8.88 111.878 9.248 112.15 9.568C112.438 9.872 112.758 10.12 113.11 10.312C113.478 10.504 114.11 10.816 115.006 11.248C115.838 11.632 116.494 11.976 116.974 12.28C117.47 12.584 117.886 12.976 118.222 13.456C118.558 13.92 118.726 14.496 118.726 15.184C118.726 16.528 118.206 17.552 117.166 18.256C116.126 18.944 114.798 19.288 113.182 19.288C112.446 19.288 111.686 19.192 110.902 19C110.134 18.824 109.462 18.576 108.886 18.256V15.424H110.23ZM127.599 5.488C129.135 5.488 130.327 5.944 131.175 6.856C132.039 7.768 132.471 9.048 132.471 10.696C132.471 11.4 132.415 12.064 132.303 12.688H123.831C123.863 14.176 124.239 15.336 124.959 16.168C125.695 17 126.735 17.416 128.079 17.416C128.671 17.416 129.303 17.352 129.975 17.224C130.647 17.08 131.191 16.904 131.607 16.696L132.111 17.848C131.599 18.296 130.855 18.656 129.879 18.928C128.903 19.184 127.935 19.312 126.975 19.312C125.023 19.296 123.511 18.688 122.439 17.488C121.367 16.288 120.831 14.656 120.831 12.592C120.831 11.232 121.119 10.016 121.695 8.944C122.271 7.856 123.071 7.008 124.095 6.4C125.119 5.792 126.287 5.488 127.599 5.488ZM127.047 6.904C126.167 6.904 125.439 7.264 124.863 7.984C124.303 8.704 123.967 9.744 123.855 11.104H129.471C129.487 10.928 129.495 10.664 129.495 10.312C129.495 9.128 129.239 8.296 128.727 7.816C128.407 7.208 127.847 6.904 127.047 6.904Z" fill="#252B42"/>
</svg>
